<svg width="60" height="60" viewBox="0 0 60 60" fill="none" xmlns="http://www.w3.org/2000/svg">
<circle cx="30" cy="30" r="30" fill="#D06D25"/>
<circle cx="30" cy="30" r="30" fill="url(#paint0_linear)"/>
<path d="M44.1719 24.578H42.5176C42.3702 21.4899 41.0398 18.577 38.8022 16.4436C36.5646 14.3102 33.5916 13.1201 30.5 13.1201C27.4084 13.1201 24.4354 14.3102 22.1978 16.4436C19.9602 18.577 18.6298 21.4899 18.4824 24.578H16.8281C16.1032 24.5788 15.4082 24.8672 14.8956 25.3798C14.383 25.8924 14.0946 26.5874 14.0938 27.3123V31.6873C14.0946 32.4123 14.383 33.1073 14.8956 33.6199C15.4082 34.1325 16.1032 34.4208 16.8281 34.4217H19.0156C19.4507 34.4217 19.868 34.2489 20.1757 33.9412C20.4834 33.6335 20.6562 33.2162 20.6562 32.7811V26.2186C20.6547 25.8847 20.5514 25.5591 20.3599 25.2855C20.1685 25.0119 19.8981 24.8032 19.5849 24.6873C19.6943 21.8657 20.8922 19.1961 22.9272 17.2384C24.9622 15.2808 27.6762 14.1873 30.5 14.1873C33.3238 14.1873 36.0378 15.2808 38.0728 17.2384C40.1078 19.1961 41.3057 21.8657 41.4151 24.6873C41.1019 24.8032 40.8315 25.0119 40.6401 25.2855C40.4486 25.5591 40.3453 25.8847 40.3438 26.2186V32.7811C40.3452 33.1192 40.451 33.4486 40.6468 33.7243C40.8426 33.9999 41.1187 34.2084 41.4375 34.3211V36.0623C41.4347 37.8662 40.7466 39.6016 39.5124 40.9172C38.2782 42.2328 36.5903 43.0303 34.7902 43.1482C34.6653 42.6855 34.3918 42.2767 34.0119 41.9846C33.6321 41.6924 33.1667 41.5331 32.6875 41.5311H28.3125C27.7323 41.5311 27.1759 41.7616 26.7657 42.1718C26.3555 42.582 26.125 43.1384 26.125 43.7186C26.125 44.2988 26.3555 44.8552 26.7657 45.2654C27.1759 45.6756 27.7323 45.9061 28.3125 45.9061H32.6875C33.1756 45.9046 33.6491 45.74 34.0328 45.4383C34.4166 45.1367 34.6884 44.7153 34.805 44.2414C36.8925 44.1191 38.8545 43.2045 40.2904 41.6844C41.7264 40.1643 42.5279 38.1534 42.5312 36.0623V34.4217H44.1719C44.8968 34.4208 45.5918 34.1325 46.1044 33.6199C46.617 33.1073 46.9054 32.4123 46.9062 31.6873V27.3123C46.9054 26.5874 46.617 25.8924 46.1044 25.3798C45.5918 24.8672 44.8968 24.5788 44.1719 24.578ZM17.375 33.328H16.8281C16.393 33.328 15.9757 33.1551 15.668 32.8474C15.3604 32.5398 15.1875 32.1225 15.1875 31.6873V27.3123C15.1875 26.8772 15.3604 26.4599 15.668 26.1522C15.9757 25.8446 16.393 25.6717 16.8281 25.6717H17.375V33.328ZM19.5625 32.7811C19.5625 32.9261 19.5049 33.0652 19.4023 33.1678C19.2998 33.2703 19.1607 33.328 19.0156 33.328H18.4688V25.6717H19.0156C19.1607 25.6717 19.2998 25.7293 19.4023 25.8319C19.5049 25.9344 19.5625 26.0735 19.5625 26.2186V32.7811ZM32.6875 44.8123H28.3125C28.0224 44.8123 27.7442 44.6971 27.5391 44.492C27.334 44.2869 27.2188 44.0087 27.2188 43.7186C27.2188 43.4285 27.334 43.1503 27.5391 42.9452C27.7442 42.7401 28.0224 42.6248 28.3125 42.6248H32.6875C32.9776 42.6248 33.2558 42.7401 33.4609 42.9452C33.666 43.1503 33.7812 43.4285 33.7812 43.7186C33.7812 44.0087 33.666 44.2869 33.4609 44.492C33.2558 44.6971 32.9776 44.8123 32.6875 44.8123ZM42.5312 33.328H41.9844C41.8393 33.328 41.7002 33.2703 41.5977 33.1678C41.4951 33.0652 41.4375 32.9261 41.4375 32.7811V26.2186C41.4375 26.0735 41.4951 25.9344 41.5977 25.8319C41.7002 25.7293 41.8393 25.6717 41.9844 25.6717H42.5312V33.328ZM45.8125 31.6873C45.8125 32.1225 45.6396 32.5398 45.332 32.8474C45.0243 33.1551 44.607 33.328 44.1719 33.328H43.625V25.6717H44.1719C44.607 25.6717 45.0243 25.8446 45.332 26.1522C45.6396 26.4599 45.8125 26.8772 45.8125 27.3123V31.6873Z" fill="white"/>
<path d="M38.1563 29.5C38.1563 27.9857 37.7072 26.5055 36.8659 25.2464C36.0247 23.9874 34.8289 23.006 33.4299 22.4266C32.0309 21.8471 30.4915 21.6954 29.0063 21.9909C27.5212 22.2863 26.157 23.0155 25.0862 24.0862C24.0155 25.157 23.2863 26.5212 22.9909 28.0063C22.6954 29.4915 22.8471 31.0309 23.4266 32.4299C24.006 33.8289 24.9874 35.0247 26.2464 35.8659C27.5055 36.7072 28.9857 37.1563 30.5 37.1563C32.5299 37.1541 34.476 36.3467 35.9114 34.9114C37.3467 33.476 38.1541 31.5299 38.1563 29.5ZM23.9375 29.5C23.9375 28.2021 24.3224 26.9333 25.0435 25.8541C25.7646 24.7749 26.7895 23.9337 27.9886 23.437C29.1878 22.9403 30.5073 22.8104 31.7803 23.0636C33.0533 23.3168 34.2226 23.9418 35.1404 24.8596C36.0582 25.7774 36.6832 26.9467 36.9364 28.2197C37.1896 29.4927 37.0597 30.8122 36.563 32.0114C36.0663 33.2105 35.2251 34.2354 34.1459 34.9565C33.0667 35.6776 31.7979 36.0625 30.5 36.0625C28.7601 36.0606 27.092 35.3686 25.8617 34.1383C24.6314 32.908 23.9394 31.2399 23.9375 29.5Z" fill="white"/>
<path d="M34.7147 26.0584L33.9414 25.2852L30.4999 28.7266L28.6991 26.9258L27.9258 27.6991L30.4999 30.2732L34.7147 26.0584Z" fill="white"/>
<defs>
<linearGradient id="paint0_linear" x1="11" y1="1.19008e-07" x2="33.2002" y2="78.7984" gradientUnits="userSpaceOnUse">
<stop stop-color="#FF9548"/>
<stop offset="1" stop-color="#BF5E18"/>
</linearGradient>
</defs>
</svg>
