<svg width="60" height="60" viewBox="0 0 60 60" fill="none" xmlns="http://www.w3.org/2000/svg">
<circle cx="30" cy="30" r="30" fill="#D06D25"/>
<circle cx="30" cy="30" r="30" fill="url(#paint0_linear)"/>
<path d="M41.0856 31.4931C41.0348 31.4423 40.9745 31.402 40.9082 31.3745C40.8418 31.347 40.7707 31.3329 40.6989 31.3329C40.627 31.3329 40.5559 31.347 40.4896 31.3745C40.4232 31.402 40.3629 31.4423 40.3121 31.4931L39.6715 32.1337L39.1246 31.5869V29.372C39.1246 27.989 38.5751 26.6626 37.5972 25.6847C36.6192 24.7067 35.2928 24.1573 33.9098 24.1573H33.8825L32.855 23.1299C31.8209 22.0901 30.4305 21.4817 28.965 21.4277L28.0705 20.5332L28.7113 19.8926C28.7621 19.8418 28.8023 19.7815 28.8298 19.7151C28.8573 19.6488 28.8715 19.5777 28.8715 19.5059C28.8715 19.434 28.8573 19.3629 28.8298 19.2966C28.8023 19.2302 28.7621 19.1699 28.7113 19.1191L23.2972 13.7051L22.5239 14.4783L27.5511 19.5054L19.8171 27.2394L14.7901 22.2125L14.0166 22.9856L19.4303 28.3997C19.4811 28.4505 19.5414 28.4908 19.6078 28.5183C19.6741 28.5458 19.7452 28.5599 19.8171 28.5599C19.8889 28.5599 19.96 28.5458 20.0264 28.5183C20.0927 28.4908 20.153 28.4505 20.2038 28.3997L20.7345 27.8689L21.6246 28.7589V31.2667C21.6245 31.5292 21.6874 31.7879 21.808 32.0211C21.9286 32.2542 22.1035 32.455 22.3178 32.6065C22.5321 32.7581 22.7797 32.8559 23.0398 32.8919C23.2998 32.9279 23.5647 32.9009 23.8121 32.8132V33.4542C23.812 33.7167 23.8749 33.9754 23.9955 34.2086C24.1161 34.4417 24.291 34.6425 24.5053 34.794C24.7196 34.9456 24.9672 35.0434 25.2273 35.0794C25.4873 35.1154 25.7522 35.0884 25.9996 35.0007V35.6417C25.9995 35.9042 26.0624 36.1629 26.183 36.3961C26.3036 36.6292 26.4785 36.83 26.6928 36.9815C26.9071 37.1331 27.1547 37.2309 27.4148 37.2669C27.6748 37.3029 27.9397 37.2759 28.1871 37.1882V37.8292C28.1869 38.1614 28.2876 38.4859 28.4759 38.7596C28.6642 39.0333 28.9311 39.2433 29.2414 39.3619C29.5518 39.4805 29.8908 39.502 30.2136 39.4236C30.5364 39.3453 30.8278 39.1707 31.0492 38.923H31.7887L32.3356 39.4699L31.8048 40.0007C31.754 40.0515 31.7137 40.1118 31.6862 40.1781C31.6588 40.2445 31.6446 40.3156 31.6446 40.3874C31.6446 40.4592 31.6588 40.5303 31.6862 40.5967C31.7137 40.663 31.754 40.7233 31.8048 40.7741L37.2189 46.1882L37.9921 45.4142L32.9649 40.3871L40.6991 32.6531L45.7261 37.6802L46.4996 36.9068L41.0856 31.4931ZM29.8277 38.3759C29.6827 38.3758 29.5437 38.3181 29.4412 38.2156C29.3387 38.113 29.281 37.974 29.2808 37.829V33.454H28.1871V35.6415C28.1871 35.7866 28.1295 35.9257 28.0269 36.0282C27.9244 36.1308 27.7853 36.1884 27.6402 36.1884C27.4952 36.1884 27.3561 36.1308 27.2535 36.0282C27.151 35.9257 27.0933 35.7866 27.0933 35.6415V31.2665H25.9996V33.454C25.9996 33.5991 25.942 33.7382 25.8394 33.8407C25.7369 33.9433 25.5978 34.0009 25.4527 34.0009C25.3077 34.0009 25.1686 33.9433 25.066 33.8407C24.9635 33.7382 24.9058 33.5991 24.9058 33.454V29.6259H23.8121V31.2665C23.8121 31.4116 23.7545 31.5507 23.6519 31.6532C23.5494 31.7558 23.4103 31.8134 23.2652 31.8134C23.1202 31.8134 22.9811 31.7558 22.8785 31.6532C22.776 31.5507 22.7183 31.4116 22.7183 31.2665V28.5322C22.7183 28.4603 22.7042 28.3892 22.6767 28.3229C22.6492 28.2565 22.609 28.1962 22.5582 28.1455L21.508 27.0952L27.297 21.3062L28.3473 22.356C28.398 22.4068 28.4583 22.4471 28.5247 22.4746C28.591 22.5021 28.6621 22.5163 28.734 22.5163C29.3559 22.5146 29.972 22.6362 30.5466 22.8742C31.1212 23.1123 31.6429 23.4619 32.0815 23.9029L32.3355 24.1569H27.0933C26.9483 24.1569 26.8092 24.2145 26.7066 24.3171C26.6041 24.4196 26.5465 24.5587 26.5465 24.7038C26.5479 25.6087 26.8462 26.4882 27.3955 27.2073C27.9448 27.9265 28.7148 28.4457 29.5874 28.6852L30.3746 28.8999V37.829C30.3744 37.974 30.3168 38.113 30.2142 38.2156C30.1117 38.3181 29.9727 38.3758 29.8277 38.3759ZM32.4019 37.9892C32.3511 37.9384 32.2908 37.8981 32.2245 37.8707C32.1581 37.8432 32.087 37.829 32.0152 37.829H31.4683V29.1984L32.5621 29.4967V29.6259C32.5629 30.3509 32.8512 31.0459 33.3639 31.5585C33.8765 32.0711 34.5715 32.3595 35.2965 32.3603C35.4415 32.3603 35.5806 32.3027 35.6832 32.2001C35.7857 32.0976 35.8433 31.9585 35.8433 31.8134C35.8433 31.6684 35.7857 31.5293 35.6832 31.4267C35.5806 31.3242 35.4415 31.2665 35.2965 31.2665C34.8615 31.2661 34.4445 31.093 34.1369 30.7855C33.8293 30.4779 33.6563 30.0609 33.6558 29.6259V29.079C33.6558 28.959 33.6163 28.8423 33.5435 28.747C33.4706 28.6516 33.3683 28.5829 33.2525 28.5514L29.8749 27.6302C29.324 27.4788 28.827 27.1754 28.4406 26.7546C28.0543 26.3338 27.7942 25.8126 27.6903 25.2509H33.9101C34.4512 25.2509 34.9871 25.3575 35.4871 25.5646C35.9871 25.7717 36.4414 26.0752 36.8241 26.4579C37.2068 26.8405 37.5103 27.2948 37.7174 27.7948C37.9245 28.2948 38.0311 28.8307 38.0311 29.3719V31.8134C38.0311 31.9584 38.0887 32.0975 38.1913 32.2001L38.8983 32.9072L33.1092 38.6962L32.4019 37.9892Z" fill="white"/>
<path d="M34.5061 40.3896L35.2794 39.6164L36.0527 40.3896L35.2794 41.1629L34.5061 40.3896Z" fill="white"/>
<path d="M19.042 24.9189L19.8153 24.1457L20.5886 24.9189L19.8153 25.6922L19.042 24.9189Z" fill="white"/>
<path d="M17.9219 27.8594H16.8281V44.8125C16.8281 44.9575 16.8857 45.0966 16.9883 45.1992C17.0909 45.3018 17.23 45.3594 17.375 45.3594H33.7812V44.2656H17.9219V27.8594Z" fill="white"/>
<path d="M43.0781 32.2344H44.1719V14.1875C44.1719 14.0425 44.1143 13.9034 44.0117 13.8008C43.9091 13.6982 43.77 13.6406 43.625 13.6406H25.5781V14.7344H43.0781V32.2344Z" fill="white"/>
<path d="M38.7031 16.375C38.1623 16.375 37.6337 16.5354 37.184 16.8358C36.7343 17.1363 36.3839 17.5633 36.1769 18.063C35.9699 18.5626 35.9158 19.1124 36.0213 19.6428C36.1268 20.1732 36.3872 20.6605 36.7696 21.0429C37.152 21.4253 37.6393 21.6857 38.1697 21.7912C38.7001 21.8967 39.2499 21.8426 39.7495 21.6356C40.2492 21.4286 40.6762 21.0782 40.9767 20.6285C41.2771 20.1788 41.4375 19.6502 41.4375 19.1094C41.4367 18.3844 41.1483 17.6894 40.6357 17.1768C40.1231 16.6642 39.4281 16.3758 38.7031 16.375ZM38.7031 20.75C38.3786 20.75 38.0614 20.6538 37.7916 20.4735C37.5218 20.2932 37.3116 20.037 37.1874 19.7372C37.0632 19.4374 37.0307 19.1076 37.094 18.7893C37.1573 18.4711 37.3136 18.1787 37.543 17.9493C37.7725 17.7198 38.0648 17.5636 38.3831 17.5003C38.7013 17.437 39.0312 17.4695 39.331 17.5936C39.6308 17.7178 39.887 17.9281 40.0673 18.1979C40.2475 18.4677 40.3438 18.7849 40.3438 19.1094C40.3432 19.5443 40.1702 19.9613 39.8627 20.2689C39.5551 20.5765 39.1381 20.7495 38.7031 20.75Z" fill="white"/>
<path d="M38.1562 22.9375H41.4375V24.0312H38.1562V22.9375Z" fill="white"/>
<path d="M39.7969 25.125H41.4375V26.2188H39.7969V25.125Z" fill="white"/>
<path d="M19.5625 41.7969H27.2188V42.8906H19.5625V41.7969Z" fill="white"/>
<path d="M19.5625 39.6094H25.0312V40.7031H19.5625V39.6094Z" fill="white"/>
<path d="M19.5625 37.4219H22.8438V38.5156H19.5625V37.4219Z" fill="white"/>
<defs>
<linearGradient id="paint0_linear" x1="11" y1="1.19008e-07" x2="33.2002" y2="78.7984" gradientUnits="userSpaceOnUse">
<stop stop-color="#FF9548"/>
<stop offset="1" stop-color="#BF5E18"/>
</linearGradient>
</defs>
</svg>
