<svg width="60" height="60" viewBox="0 0 60 60" fill="none" xmlns="http://www.w3.org/2000/svg">
<circle cx="30" cy="30" r="30" fill="#D06D25"/>
<circle cx="30" cy="30" r="30" fill="url(#paint0_linear)"/>
<path d="M40.8659 35.304C42.0842 36.1886 42.6598 38.7992 42.7796 39.7325L43.6881 46.5856L44.6374 46.461L43.7296 39.6C43.7105 39.4483 43.2299 35.8341 41.4328 34.5376C40.8308 34.1352 40.1857 33.8007 39.5087 33.5412C39.468 33.5101 39.4241 33.4853 39.3754 33.4686L38.9802 33.3289C38.383 33.0981 37.7595 32.8826 37.1608 32.6958L36.7911 32.5664C36.7544 32.5529 36.7169 32.5449 36.6778 32.5409C35.6766 32.2239 34.7976 31.99 34.3266 31.8671V30.8196C35.7565 29.7977 36.6059 28.1483 36.6043 26.3912V25.5848C36.764 25.6431 36.9324 25.6734 37.1009 25.6758C37.9 25.6758 38.5475 25.0284 38.5475 24.2292V22.9391C38.5475 22.5886 38.4182 22.2509 38.1859 21.9906C38.3399 21.7447 38.4182 21.4589 38.4118 21.1699V20.619C38.4341 20.2175 38.3072 19.8215 38.0565 19.5061C37.9264 19.3704 37.7595 19.273 37.5759 19.2275C37.4625 17.9206 36.8422 14.0837 33.533 12.5844H33.5043C32.6421 12.2148 31.7168 12.0168 30.7803 12.0016H30.5049C29.6091 11.9832 28.7174 12.1237 27.8695 12.4159H27.8471C24.1827 13.7636 23.5225 17.8583 23.4187 19.2147C23.2343 19.2602 23.0666 19.3568 22.9373 19.4934C22.6746 19.8047 22.5373 20.2015 22.5541 20.6071V21.1739C22.5469 21.4629 22.6251 21.7479 22.7784 21.9922C22.5477 22.2549 22.4175 22.5926 22.4175 22.9431V24.2356C22.4175 25.0347 23.0658 25.6814 23.8642 25.6814C24.0342 25.6814 24.2011 25.6503 24.3599 25.5904V26.3999C24.3631 28.1372 25.1942 29.7682 26.5977 30.7917V31.8671C24.9052 32.3086 23.2374 32.8443 21.6048 33.4742H21.5833C20.8599 33.7448 20.1702 34.0985 19.5259 34.5248C17.7288 35.8341 17.249 39.4443 17.229 39.588L16.3213 46.453L17.2705 46.576L18.1783 39.7109C18.2996 38.78 18.8736 36.1726 20.0768 35.2808C20.4592 35.0262 20.8647 34.809 21.2887 34.6318V38.7441C20.5893 39.0012 19.7071 39.7205 19.7071 41.239V46.5257C19.7071 46.7867 19.9187 46.9999 20.1813 46.9999H40.7997C41.0623 46.9999 41.2731 46.7867 41.2731 46.5257V41.2478C41.2731 39.7293 40.3853 39.0108 39.6916 38.7545V34.6422C40.1043 34.8242 40.4963 35.0461 40.8659 35.304ZM37.607 22.9391V24.2332C37.5863 24.5062 37.346 24.7106 37.0729 24.6891C36.8302 24.6691 36.637 24.4759 36.6171 24.2332V22.9391C36.5963 22.6652 36.7991 22.4265 37.0729 22.4034C37.346 22.3818 37.5863 22.5862 37.607 22.8592C37.6102 22.8856 37.6102 22.9127 37.607 22.9391ZM31.1531 12.9732C31.7303 13.0171 32.2996 13.1424 32.8433 13.342V15.7443C32.4521 16.3071 31.8349 16.6688 31.1531 16.7342V12.9732ZM28.5146 13.2103C29.0638 13.053 29.6315 12.966 30.2047 12.9508V16.747C29.5229 16.6816 28.9042 16.3191 28.5146 15.7563V13.2103ZM24.348 24.2292C24.3264 24.5022 24.0861 24.7074 23.8139 24.6851C23.5712 24.6667 23.378 24.4735 23.358 24.2292V22.9391C23.3356 22.6652 23.54 22.4265 23.8139 22.4034C24.0861 22.3818 24.3264 22.5862 24.348 22.8592C24.3504 22.8856 24.3504 22.9127 24.348 22.9391V24.2292ZM23.8514 21.4901C23.7612 21.4901 23.6733 21.4988 23.5863 21.5148C23.5129 21.4166 23.4777 21.2929 23.4905 21.1699V20.5951C23.4849 20.4442 23.5225 20.2957 23.6015 20.1672C23.6199 20.152 23.6438 20.1464 23.6686 20.1496H23.8514C24.1132 20.1496 24.3264 19.9365 24.3264 19.6738C24.3264 19.4526 24.3887 15.2437 27.5629 13.5919V15.8712C27.5629 15.9415 27.5789 16.0101 27.6092 16.0732C27.642 16.1395 28.4156 17.7186 30.6749 17.7186C32.9335 17.7186 33.7103 16.1371 33.7414 16.0732C33.7701 16.0101 33.7869 15.9415 33.7845 15.8712V13.8202C36.5668 15.5958 36.6331 19.4614 36.6331 19.6738C36.6331 19.9365 36.8462 20.1496 37.1073 20.1496H37.2909C37.338 20.1496 37.3484 20.1496 37.3572 20.1672C37.4378 20.2989 37.4753 20.4506 37.4681 20.6055V21.1699C37.4809 21.2945 37.4442 21.419 37.3667 21.5148C36.9013 21.423 36.4199 21.5699 36.0862 21.9084H24.8789C24.6066 21.6377 24.237 21.4893 23.8546 21.4932L23.8514 21.4901ZM25.2972 26.3999V22.8576H35.6742V26.3999C35.6702 28.8876 33.6528 30.9011 31.1659 30.8987H29.7991C27.3146 30.8979 25.3004 28.8852 25.2972 26.3999ZM33.3893 31.3705V32.0723L30.4793 35.7934L27.5366 32.0723V31.3505C28.2463 31.6803 29.0183 31.8503 29.7991 31.8511H31.1659C31.9331 31.8511 32.6916 31.6866 33.3893 31.3705ZM24.7942 33.3672C25.6988 33.091 26.478 32.8802 26.8819 32.7748L30.4857 37.331L34.0488 32.7748C34.4583 32.8826 35.2503 33.091 36.1748 33.3792V38.8144H24.7839L24.7942 33.3672ZM40.3254 41.2478V46.0594H20.6556V41.2478C20.6556 39.8155 21.7158 39.6095 21.8291 39.5896C22.0647 39.5568 22.2379 39.3557 22.2379 39.1193V34.2462C22.7592 34.0434 23.3133 33.851 23.8514 33.677V39.2894C23.8514 39.552 24.0637 39.7652 24.3264 39.7652H36.6642C36.926 39.7652 37.1392 39.552 37.1392 39.2894V33.6865L38.7367 34.2462V39.1193C38.7367 39.3565 38.9132 39.5592 39.1479 39.5896C39.1966 39.596 40.3254 39.7652 40.3254 41.2478Z" fill="white"/>
<path d="M21.7542 40.6494H24.3161V41.5005H21.7542V40.6494Z" fill="white"/>
<path d="M36.6489 40.6494H39.2124V41.5005H36.6489V40.6494Z" fill="white"/>
<defs>
<linearGradient id="paint0_linear" x1="11" y1="1.19008e-07" x2="33.2002" y2="78.7984" gradientUnits="userSpaceOnUse">
<stop stop-color="#FF9548"/>
<stop offset="1" stop-color="#BF5E18"/>
</linearGradient>
</defs>
</svg>
