<svg width="60" height="60" viewBox="0 0 60 60" fill="none" xmlns="http://www.w3.org/2000/svg">
<circle cx="30" cy="30" r="30" fill="#D06D25"/>
<circle cx="30" cy="30" r="30" fill="url(#paint0_linear)"/>
<path d="M45.5499 29.8155L44.6435 26.1901C44.8913 26.1374 45.0772 25.9176 45.0772 25.6542V25.0697C45.0772 23.8005 44.0447 22.768 42.7756 22.768H38.6472V21.5623C38.6472 20.9377 38.1392 20.4297 37.5146 20.4297H16.4707C15.8462 20.4297 15.3382 20.9377 15.3382 21.5623V31.4997C15.3382 31.8023 15.5835 32.0477 15.8862 32.0477C16.1888 32.0477 16.4342 31.8024 16.4342 31.4997V21.5623C16.4342 21.5421 16.4506 21.5258 16.4707 21.5258H37.5146C37.5347 21.5258 37.5511 21.5421 37.5511 21.5623V31.4998C37.5511 31.8024 37.7964 32.0478 38.0991 32.0478C38.4017 32.0478 38.6471 31.8025 38.6471 31.4998V30.8786H45.1118C45.1124 30.8786 45.1128 30.8787 45.1132 30.8787C45.1138 30.8787 45.1143 30.8786 45.1148 30.8786C45.9103 30.8792 46.5857 31.4013 46.8177 32.1208H45.1137C44.811 32.1208 44.5656 32.3661 44.5656 32.6688V33.8379C44.5656 34.7848 45.3359 35.555 46.2827 35.555H46.9039V37.9663H45.4709C45.0002 36.6071 43.7081 35.628 42.1909 35.628C40.6736 35.628 39.3815 36.6071 38.9109 37.9663H38.647V33.8378C38.647 33.5352 38.4017 33.2898 38.099 33.2898C37.7963 33.2898 37.5509 33.5351 37.5509 33.8378V37.9661H26.1808C25.7101 36.6069 24.4181 35.6279 22.9008 35.6279C21.3836 35.6279 20.0915 36.6069 19.6208 37.9661H16.4707C16.4506 37.9661 16.4342 37.9498 16.4342 37.9296V36.724H18.809C19.1116 36.724 19.357 36.4786 19.357 36.1759C19.357 35.8732 19.1117 35.6279 18.809 35.6279H13.548C13.2454 35.6279 13 35.8732 13 36.1759C13 36.4786 13.2453 36.724 13.548 36.724H15.3382V37.9296C15.3382 38.5542 15.8463 39.0622 16.4708 39.0622H19.431C19.4309 39.0744 19.4301 39.0865 19.4301 39.0987C19.4301 41.0125 20.9871 42.5695 22.9008 42.5695C24.8146 42.5695 26.3716 41.0125 26.3716 39.0987C26.3716 39.0864 26.3708 39.0744 26.3706 39.0622H38.7211C38.721 39.0744 38.7201 39.0865 38.7201 39.0987C38.7201 41.0125 40.2772 42.5695 42.1909 42.5695C44.1046 42.5695 45.6616 41.0125 45.6616 39.0987C45.6616 39.0864 45.6608 39.0744 45.6607 39.0622H47.4519C47.7545 39.0622 47.9999 38.8169 47.9999 38.5142V32.6687C48 31.2255 46.9352 30.0264 45.5499 29.8155ZM38.6472 23.864H42.7756C43.4404 23.864 43.9812 24.4049 43.9812 25.0697V25.1062H38.6472V23.864ZM38.6472 29.7826V26.2022H43.5168L44.4119 29.7826H38.6472ZM22.9008 41.4736C21.5914 41.4736 20.5261 40.4083 20.5261 39.0989C20.5261 37.7894 21.5914 36.7241 22.9008 36.7241C24.2103 36.7241 25.2756 37.7894 25.2756 39.0989C25.2756 40.4083 24.2103 41.4736 22.9008 41.4736ZM42.191 41.4736C40.8816 41.4736 39.8163 40.4083 39.8163 39.0989C39.8163 37.7894 40.8816 36.7241 42.191 36.7241C43.5004 36.7241 44.5658 37.7894 44.5658 39.0989C44.5658 40.4083 43.5004 41.4736 42.191 41.4736ZM46.904 34.459H46.2829C45.9404 34.459 45.6618 34.1803 45.6618 33.8378V33.2167H46.9039V34.459H46.904Z" fill="white"/>
<path d="M22.9009 37.9668C22.2764 37.9668 21.7683 38.4748 21.7683 39.0994C21.7683 39.7239 22.2764 40.232 22.9009 40.232C23.5254 40.232 24.0335 39.7239 24.0335 39.0994C24.0335 38.4748 23.5254 37.9668 22.9009 37.9668Z" fill="white"/>
<path d="M42.1911 37.9668C41.5665 37.9668 41.0585 38.4748 41.0585 39.0994C41.0585 39.7239 41.5665 40.232 42.1911 40.232C42.8156 40.232 43.3236 39.7239 43.3236 39.0994C43.3236 38.4748 42.8156 37.9668 42.1911 37.9668Z" fill="white"/>
<path d="M35.7609 35.6289H27.5772C27.2746 35.6289 27.0292 35.8742 27.0292 36.1769C27.0292 36.4796 27.2745 36.725 27.5772 36.725H35.7609C36.0635 36.725 36.309 36.4796 36.309 36.1769C36.309 35.8742 36.0636 35.6289 35.7609 35.6289Z" fill="white"/>
<path d="M21.7317 33.29H14.7171C14.4145 33.29 14.1691 33.5354 14.1691 33.8381C14.1691 34.1408 14.4144 34.3861 14.7171 34.3861H21.7317C22.0344 34.3861 22.2798 34.1408 22.2798 33.8381C22.2798 33.5354 22.0344 33.29 21.7317 33.29Z" fill="white"/>
<path d="M27.5 24C25.0147 24 23 26.0147 23 28.5C23 30.9853 25.0147 33 27.5 33C29.9853 33 32 30.9853 32 28.5C31.9973 26.0158 29.9842 24.0027 27.5 24ZM27.5 32.3571C25.3697 32.3571 23.6429 30.6302 23.6429 28.5C23.6429 26.3697 25.3697 24.6429 27.5 24.6429C29.6302 24.6429 31.3571 26.3697 31.3571 28.5C31.3548 30.6293 29.6293 32.3548 27.5 32.3571Z" fill="white"/>
<path d="M27.5 25.6074C27.3225 25.6074 27.1786 25.7513 27.1786 25.9289V28.1789H24.9286C24.7511 28.1789 24.6072 28.3228 24.6072 28.5003C24.6072 28.6778 24.7511 28.8217 24.9286 28.8217H27.5C27.6776 28.8217 27.8215 28.6778 27.8215 28.5003V25.9289C27.8215 25.7513 27.6776 25.6074 27.5 25.6074Z" fill="white"/>
<defs>
<linearGradient id="paint0_linear" x1="11" y1="1.19008e-07" x2="33.2002" y2="78.7984" gradientUnits="userSpaceOnUse">
<stop stop-color="#FF9548"/>
<stop offset="1" stop-color="#BF5E18"/>
</linearGradient>
</defs>
</svg>
