<svg width="60" height="60" viewBox="0 0 60 60" fill="none" xmlns="http://www.w3.org/2000/svg">
<circle cx="30" cy="30" r="30" fill="#D06D25"/>
<circle cx="30" cy="30" r="30" fill="url(#paint0_linear)"/>
<path d="M43.0352 17.709L37.3261 12H20.3398V30.6125C17.8928 30.8214 15.9648 32.8786 15.9648 35.3789C15.9648 36.8145 16.6011 38.1033 17.6055 38.9812V47H18.7324L20.75 44.9824L22.7676 47H23.8945V43.4453H43.0352V17.709ZM37.5664 13.4003L41.6348 17.4688H37.5664V13.4003ZM16.7852 35.3789C16.7852 33.1927 18.5638 31.4141 20.75 31.4141C22.9362 31.4141 24.7148 33.1927 24.7148 35.3789C24.7148 37.5651 22.9362 39.3438 20.75 39.3438C18.5638 39.3438 16.7852 37.5651 16.7852 35.3789ZM20.75 43.8223L18.4258 46.1465V39.5597C19.1145 39.9441 19.9069 40.1641 20.75 40.1641C21.5931 40.1641 22.3855 39.9441 23.0742 39.5597V46.1465L20.75 43.8223ZM23.8945 42.625V38.9812C24.8989 38.1033 25.5352 36.8145 25.5352 35.3789C25.5352 32.8787 23.6072 30.8215 21.1602 30.6125V12.8203H36.7461V18.2891H42.2148V42.625H23.8945Z" fill="white"/>
<path d="M24.0312 16.375H30.5938V17.1953H24.0312V16.375Z" fill="white"/>
<path d="M24.0312 18.5625H28.4062V19.3828H24.0312V18.5625Z" fill="white"/>
<path d="M24.0312 21.8438H39.3438V22.6641H24.0312V21.8438Z" fill="white"/>
<path d="M24.0312 24.0312H39.3438V24.8516H24.0312V24.0312Z" fill="white"/>
<path d="M24.0312 28.4062H39.3438V29.2266H24.0312V28.4062Z" fill="white"/>
<path d="M26.2188 30.5938H37.1562V31.4141H26.2188V30.5938Z" fill="white"/>
<path d="M24.0312 26.2188H39.3438V27.0391H24.0312V26.2188Z" fill="white"/>
<path d="M32.7812 33.875H39.3438V34.6953H32.7812V33.875Z" fill="white"/>
<path d="M34.9688 36.0625H39.3438V36.8828H34.9688V36.0625Z" fill="white"/>
<path d="M20.75 37.9766C22.1823 37.9766 23.3477 36.8112 23.3477 35.3789C23.3477 33.9466 22.1823 32.7812 20.75 32.7812C19.3177 32.7812 18.1523 33.9466 18.1523 35.3789C18.1523 36.8112 19.3177 37.9766 20.75 37.9766ZM20.75 33.6016C21.7301 33.6016 22.5273 34.3988 22.5273 35.3789C22.5273 36.359 21.7301 37.1562 20.75 37.1562C19.7699 37.1562 18.9727 36.359 18.9727 35.3789C18.9727 34.3988 19.7699 33.6016 20.75 33.6016Z" fill="white"/>
<defs>
<linearGradient id="paint0_linear" x1="11" y1="1.19008e-07" x2="33.2002" y2="78.7984" gradientUnits="userSpaceOnUse">
<stop stop-color="#FF9548"/>
<stop offset="1" stop-color="#BF5E18"/>
</linearGradient>
</defs>
</svg>
