<svg width="13" height="16" viewBox="0 0 13 16" fill="none" xmlns="http://www.w3.org/2000/svg">
<path d="M11.9958 14.2699C11.5274 14.9604 10.2539 15.3159 9.31629 15.2808C8.67529 15.255 7.85348 15.1582 5.42958 13.4369C2.32892 11.2362 0.935027 7.36306 0.815712 7.10468C0.703701 6.84809 -0.139013 5.00064 0.253834 3.40033C0.64668 1.80002 1.68952 1.22981 2.1149 0.979513C2.46422 0.774097 2.96096 0.763018 3.40792 0.872737C3.55252 0.908235 3.68081 0.947117 3.79629 0.981378C4.13612 1.07958 4.30368 1.14141 4.40313 1.71416C4.52591 2.43157 4.81956 4.2004 4.86098 4.38497C4.90386 4.5699 4.93236 4.81338 4.76247 5.00077C4.59817 5.19691 4.47747 5.27222 4.25857 5.4195C4.03968 5.56677 3.8405 5.67159 3.61818 5.8328C3.41697 5.97111 3.19224 6.11695 3.31047 6.49331C3.43041 6.86269 3.85444 8.10041 4.65441 9.20724C5.68671 10.6357 6.65729 11.2493 6.99864 11.4928C7.25317 11.6735 7.59562 11.7295 7.8529 11.5709C8.1804 11.3661 8.61271 10.9992 9.04914 10.6408C9.36018 10.3831 9.66481 10.4165 9.94709 10.604C10.2369 10.786 11.7131 11.9835 12.0163 12.2308C12.3192 12.4796 12.5264 12.6132 12.5758 12.7717C12.6237 12.9298 12.4646 13.578 11.9958 14.2699Z" fill="#EF873C"/>
</svg>
