<svg width="11" height="13" viewBox="0 0 11 13" fill="none" xmlns="http://www.w3.org/2000/svg">
<path d="M9.52202 12.1873C9.09658 12.7352 8.02102 12.9622 7.24497 12.8831C6.71452 12.8275 6.03785 12.7034 4.11859 11.1461C1.6634 9.15484 0.713455 5.86709 0.628241 5.64635C0.54899 5.4275 -0.0516758 3.84978 0.359591 2.543C0.770857 1.23621 1.66648 0.818734 2.03275 0.633751C2.33352 0.48195 2.74625 0.499245 3.11122 0.614109C3.22931 0.651271 3.33367 0.690371 3.42765 0.724954C3.70436 0.82455 3.84009 0.88478 3.89206 1.36528C3.95567 1.96704 4.10499 3.45025 4.12951 3.60559C4.15522 3.76131 4.16589 3.96484 4.01494 4.11125C3.86817 4.26523 3.76401 4.32127 3.57455 4.43179C3.38508 4.5423 3.21424 4.61865 3.02119 4.74055C2.84688 4.84457 2.65264 4.95359 2.73067 5.27214C2.81048 5.58501 3.09629 6.63452 3.70099 7.59548C4.48129 8.83565 5.25384 9.39655 5.52406 9.61671C5.7256 9.78022 6.00674 9.84493 6.22865 9.72711C6.51129 9.57461 6.88952 9.2933 7.27074 9.01919C7.54254 8.82199 7.7935 8.86594 8.0177 9.03659C8.24846 9.20304 9.40935 10.2752 9.64773 10.4966C9.88575 10.7192 10.0506 10.8411 10.0831 10.9752C10.1144 11.1089 9.94782 11.6382 9.52202 12.1873Z" fill="#FAFAFA"/>
</svg>
