<svg width="22" height="22" viewBox="0 0 22 22" fill="none" xmlns="http://www.w3.org/2000/svg">
<path d="M11 22C17.0751 22 22 17.0751 22 11C22 4.92487 17.0751 0 11 0C4.92487 0 0 4.92487 0 11C0 17.0751 4.92487 22 11 22Z" fill="#039BE5"/>
<path d="M4.6495 9.86663L15.6481 5.75443C16.1586 5.5756 16.6045 5.87519 16.4391 6.6237L16.44 6.62278L14.5673 15.1781C14.4285 15.7847 14.0568 15.9321 13.5368 15.6464L10.685 13.6083L9.30942 14.8933C9.15732 15.0408 9.02899 15.1652 8.7343 15.1652L8.93678 12.3509L14.2222 7.72065C14.4523 7.52431 14.1709 7.41369 13.8676 7.60911L7.33594 11.5969L4.52021 10.7451C3.90897 10.5571 3.89566 10.1524 4.6495 9.86663Z" fill="white"/>
</svg>
