<svg width="22" height="22" viewBox="0 0 22 22" fill="none" xmlns="http://www.w3.org/2000/svg">
<path d="M11.0027 0H10.9973C4.93213 0 0 4.9335 0 11C0 13.4062 0.7755 15.6365 2.09413 17.4474L0.72325 21.5339L4.95138 20.1823C6.69075 21.3345 8.76562 22 11.0027 22C17.0679 22 22 17.0651 22 11C22 4.93488 17.0679 0 11.0027 0Z" fill="#4CAF50"/>
<path d="M16.8956 15.5824C16.6466 16.2873 15.6585 16.8719 14.8703 17.0426C14.331 17.1577 13.6267 17.2495 11.2556 16.264C8.22271 15.0043 6.2696 11.9146 6.11738 11.7141C5.9716 11.5137 4.89185 10.0781 4.89185 8.59336C4.89185 7.10864 5.64394 6.38568 5.94709 6.07528C6.19607 5.8205 6.60759 5.7041 7.00234 5.7041C7.13005 5.7041 7.24487 5.71057 7.34807 5.71574C7.65123 5.72867 7.80345 5.74678 8.00341 6.2266C8.25238 6.82799 8.8587 8.31271 8.93094 8.46532C9.00447 8.61794 9.078 8.82487 8.9748 9.02533C8.87805 9.23226 8.79291 9.32408 8.64068 9.49997C8.48846 9.67586 8.34398 9.81037 8.19175 9.99919C8.05243 10.1634 7.89504 10.3393 8.07049 10.6433C8.24593 10.9407 8.85225 11.9327 9.74495 12.7294C10.897 13.7576 11.8309 14.0861 12.1651 14.2257C12.414 14.3292 12.7107 14.3046 12.8926 14.1106C13.1235 13.861 13.4086 13.4472 13.6989 13.0398C13.9053 12.7475 14.1659 12.7113 14.4394 12.8147C14.718 12.9117 16.1925 13.6425 16.4957 13.7938C16.7989 13.9464 16.9988 14.0188 17.0723 14.1468C17.1446 14.2749 17.1446 14.8763 16.8956 15.5824Z" fill="#FAFAFA"/>
</svg>
